<svg class="kachna-logo" viewBox="0 0 49 90" version="1.1" xmlns="http://www.w3.org/2000/svg" xmlns:xlink="http://www.w3.org/1999/xlink" xml:space="preserve" xmlns:serif="http://www.serif.com/" style="fill-rule:evenodd;clip-rule:evenodd;stroke-linecap:round;stroke-linejoin:round;">
    <g id="layer1" transform="matrix(1,0,0,1,892.15,-546.872)">
        <g id="g3962">
            <path id="path3945" d="M-871.207,630.035C-872.018,632.582 -873.296,633.147 -874.527,635.19" style="fill:none;fill-rule:nonzero;stroke-opacity:0.94;stroke-width:2.05px;"></path>
            <path id="path3960" d="M-874.305,563.243C-875.437,565.777 -875.655,568.611 -874.952,571.238C-873.055,577.238 -872.406,583.989 -875.45,589.214C-878.622,594.469 -885.033,597.702 -885.202,603.127C-885.476,611.937 -880.701,617.29 -873.135,620.11C-873.005,622.826 -872.672,625.886 -872.829,628.409C-875.653,630.312 -878.926,631.057 -880.853,633.577C-878.311,634.653 -875.898,633.176 -874.677,635.586C-872.464,635.135 -868.166,634.724 -866.057,633.793C-866.057,633.793 -867.648,630.918 -868.373,629.885C-870.501,627.074 -870.24,623.965 -869.937,620.544C-863.263,621.318 -859.201,620.394 -853.568,618.758C-853.568,618.758 -851.462,627.97 -854.364,628.445C-856.301,629.169 -858.408,629.228 -860.408,629.606C-860.494,630.927 -860.514,632.598 -861.215,633.951C-858.976,634.012 -853.201,634.698 -852.382,635.023C-851.275,633.572 -851.285,631.895 -850.613,628.515C-850.592,625.096 -850.521,622.295 -851.007,618.009C-844.8,611.589 -842.694,603.765 -847.236,596.912C-850.543,591.921 -856.67,590.363 -861.717,589.922C-863.023,586.146 -864.462,579.595 -864.227,575.536C-863.865,573.396 -862.701,572.335 -860.984,573.19C-858.039,575.677 -853.182,577.977 -849.797,577.126C-848.885,576.422 -849.448,575.489 -849.909,574.995C-852.395,572.332 -856.514,570.215 -857.763,567.169C-859.293,563.554 -860.942,559.806 -864.552,558.398C-868.858,556.746 -872.721,559.697 -874.305,563.243L-874.305,563.243Z" style="fill:none;fill-rule:nonzero;stroke-opacity:0.94;stroke-width:2.05px;"></path>
            <path id="path3958" d="M-883.077,561.502C-880.458,558.154 -874.928,558.255 -872.049,559.722" style="fill:none;fill-rule:nonzero;stroke-opacity:0.94;stroke-width:2.05px;"></path>
            <path id="path3954" d="M-869.606,558.346C-877.515,551.2 -886.469,552.28 -891.125,563.02" style="fill:none;fill-rule:nonzero;stroke-opacity:0.94;stroke-width:2.05px;"></path>
            <path id="path3940" d="M-867.222,557.931C-869.2,551.612 -877.505,545.608 -885.555,548.622" style="fill:none;fill-rule:nonzero;stroke-opacity:0.94;stroke-width:2.05px;"></path>
            <path id="path3930" d="M-858.725,565.645C-859.326,566.066 -860.915,566.302 -861.076,567.253C-861.387,568.146 -860.854,569.382 -861.734,570.006C-862.206,570.413 -863.153,570.24 -863.388,570.873C-863.175,571.332 -862.553,572.451 -862.502,572.586" style="fill:none;fill-rule:nonzero;stroke-opacity:0.94;stroke-width:2.05px;"></path>
            <path id="path3906" d="M-857.717,571.588C-858.059,571.37 -858.446,570.901 -858.815,570.618" style="fill:none;fill-rule:nonzero;stroke-opacity:0.94;stroke-width:2.05px;"></path>
            <path id="path3904" d="M-853.188,630.092C-855.597,632.255 -858.372,632.869 -860.927,633.904" style="fill:none;fill-rule:nonzero;stroke-opacity:0.94;stroke-width:2.05px;"></path>
            <path id="path3973" d="M-864.958,564.443L-864.958,564.446C-864.958,565.397 -865.741,566.179 -866.691,566.179C-867.642,566.179 -868.424,565.397 -868.424,564.446L-868.424,564.443C-868.424,563.492 -867.642,562.71 -866.691,562.71C-865.741,562.71 -864.958,563.492 -864.958,564.443Z" style="fill:none;fill-rule:nonzero;stroke-opacity:0.94;stroke-width:2.05px;"></path>
        </g>
    </g>
</svg>
