<?xml version="1.0" standalone="no"?>
<!DOCTYPE svg PUBLIC "-//W3C//DTD SVG 20010904//EN"
 "http://www.w3.org/TR/2001/REC-SVG-20010904/DTD/svg10.dtd">
<svg version="1.0" xmlns="http://www.w3.org/2000/svg"
 width="1440.000000pt" height="1440.000000pt" viewBox="0 0 1440.000000 1440.000000"
 preserveAspectRatio="xMidYMid meet">
<metadata>
Created by potrace 1.11, written by Peter Selinger 2001-2013
</metadata>
<g transform="translate(0.000000,1440.000000) scale(0.100000,-0.100000)"
fill="#000000" stroke="none">
<path d="M4789 14396 c-2 -2 -24 -6 -49 -9 -25 -4 -56 -9 -70 -12 -14 -3 -40
-8 -59 -11 -19 -3 -46 -10 -60 -16 -14 -5 -27 -9 -28 -9 -2 1 -4 1 -5 0 -2 0
-11 -2 -20 -4 -14 -3 -70 -19 -138 -41 -8 -3 -17 -5 -20 -6 -23 -2 -84 -45
-107 -75 -23 -30 -28 -46 -28 -93 1 -47 6 -64 28 -94 54 -70 115 -85 214 -50
37 13 77 25 88 27 11 1 25 5 30 8 9 6 32 12 88 25 37 9 54 12 97 19 25 4 53 9
64 11 139 26 400 21 586 -11 68 -11 72 -12 115 -23 22 -6 51 -13 65 -16 24 -5
120 -36 220 -71 145 -51 565 -293 593 -341 4 -8 12 -14 18 -14 21 0 217 -185
330 -312 41 -45 143 -178 159 -206 8 -15 18 -29 21 -32 21 -19 133 -225 141
-259 3 -15 -79 -44 -96 -34 -11 7 -147 114 -156 123 -28 28 -217 160 -230 160
-5 0 -10 4 -10 8 0 5 -12 15 -27 23 -16 7 -51 28 -79 46 -279 175 -660 307
-979 340 -123 13 -415 6 -415 -10 0 -5 -4 -6 -9 -2 -6 3 -56 -4 -113 -16 -275
-57 -529 -174 -759 -351 -192 -148 -400 -375 -551 -604 -93 -140 -136 -215
-227 -399 -109 -222 -118 -253 -85 -318 60 -115 211 -126 284 -20 13 19 25 41
26 48 6 41 235 465 256 473 4 2 8 8 8 13 0 14 130 189 199 269 62 71 191 200
231 231 14 10 43 33 65 50 69 54 177 121 250 156 38 19 79 39 89 45 75 41 390
119 415 103 6 -3 12 -2 14 2 6 10 234 9 327 -1 36 -3 92 -13 125 -21 33 -9 73
-17 90 -20 32 -5 192 -56 249 -80 20 -8 38 -15 41 -15 3 0 44 -20 92 -44 49
-24 95 -46 103 -50 20 -9 36 -19 155 -94 55 -34 109 -68 120 -75 11 -6 22 -14
25 -17 3 -3 38 -30 78 -59 40 -29 70 -56 68 -59 -3 -3 -14 -10 -25 -16 -10 -6
-30 -19 -44 -29 -24 -17 -29 -17 -59 -3 -86 39 -299 94 -428 112 -225 29 -520
17 -685 -28 -22 -7 -43 -11 -47 -10 -4 1 -52 -14 -105 -34 -54 -19 -102 -36
-108 -38 -19 -4 -160 -78 -215 -113 -69 -44 -151 -113 -210 -177 -25 -26 -55
-59 -67 -72 -13 -13 -23 -27 -23 -32 0 -6 -6 -22 -14 -37 -10 -18 -11 -36 -6
-56 10 -33 10 -34 10 -52 0 -22 70 -85 104 -93 86 -21 116 -7 226 106 81 84
180 156 265 196 22 10 43 23 47 28 4 6 8 8 8 4 0 -4 15 -1 33 7 53 22 210 64
263 70 27 3 69 8 94 12 56 7 281 7 335 0 97 -13 135 -20 209 -38 43 -10 80
-19 83 -19 2 0 -24 -36 -57 -79 -33 -43 -60 -84 -60 -90 0 -6 -3 -11 -7 -11
-8 0 -18 -15 -83 -135 -96 -177 -179 -431 -215 -665 -24 -150 -24 -428 1 -595
17 -122 31 -178 84 -352 17 -56 33 -110 35 -120 2 -10 11 -45 20 -78 9 -33 18
-69 21 -80 2 -11 6 -29 8 -40 2 -11 10 -42 16 -70 6 -27 13 -59 14 -70 1 -12
5 -25 9 -31 3 -6 8 -28 11 -50 2 -21 7 -50 10 -64 3 -14 8 -41 11 -60 2 -19 7
-46 9 -60 9 -53 19 -127 22 -164 2 -22 6 -54 8 -71 18 -114 26 -468 13 -625
-11 -133 -22 -235 -27 -235 -1 0 -3 -9 -4 -20 -3 -21 -19 -117 -21 -125 -1 -3
-7 -32 -14 -64 -7 -33 -20 -78 -27 -100 -8 -21 -17 -52 -19 -68 -3 -16 -9 -37
-14 -46 -5 -9 -21 -51 -37 -92 -15 -41 -34 -85 -42 -97 -8 -13 -11 -23 -8 -23
4 0 -1 -12 -11 -27 -9 -14 -18 -31 -19 -38 -1 -6 -14 -30 -28 -53 -14 -23 -26
-44 -26 -47 0 -9 -54 -90 -62 -93 -5 -2 -8 -8 -8 -13 0 -8 -67 -107 -80 -119
-3 -3 -27 -32 -52 -65 -25 -33 -55 -71 -67 -85 -104 -120 -231 -255 -446 -475
-220 -225 -395 -411 -395 -420 0 -3 -8 -13 -17 -23 -40 -41 -76 -89 -201 -261
-57 -78 -161 -287 -197 -395 -29 -88 -53 -204 -62 -299 -12 -129 -5 -430 12
-557 2 -14 6 -47 9 -75 59 -490 251 -949 555 -1328 111 -139 343 -366 445
-436 12 -8 23 -18 26 -22 9 -12 284 -200 305 -208 6 -2 35 -18 65 -36 83 -50
272 -145 287 -145 7 0 13 -4 13 -10 0 -5 8 -10 18 -10 10 0 22 -4 27 -8 6 -5
46 -24 91 -42 l81 -34 2 -56 c2 -30 4 -75 6 -100 2 -25 6 -90 10 -145 3 -55 8
-131 10 -170 11 -159 17 -319 19 -478 l2 -168 -46 -29 c-25 -15 -115 -65 -200
-109 -214 -111 -255 -131 -268 -131 -6 0 -12 -3 -14 -7 -1 -5 -41 -27 -88 -51
-47 -24 -125 -68 -175 -98 -49 -31 -99 -61 -110 -67 -11 -7 -22 -14 -25 -17
-3 -3 -32 -25 -65 -49 -71 -52 -261 -242 -270 -271 -3 -11 -10 -20 -14 -20 -4
0 -8 -6 -9 -12 -1 -7 -3 -29 -6 -48 -5 -39 15 -94 45 -127 36 -38 203 -96 311
-108 104 -11 161 -15 278 -20 238 -8 290 -27 358 -134 70 -110 112 -123 292
-88 47 9 103 19 125 22 23 3 50 7 60 9 20 3 103 16 140 21 11 2 34 6 50 8 68
12 129 21 193 31 18 3 45 7 60 11 44 9 75 15 112 21 19 3 76 15 125 26 50 10
101 21 115 24 46 9 232 65 284 86 63 24 112 60 130 96 16 31 17 139 1 150 -6
4 -20 27 -32 52 -13 25 -34 65 -49 90 -14 25 -58 99 -97 165 -38 66 -75 129
-82 140 -34 59 -67 111 -133 208 -154 226 -218 408 -238 672 -6 77 -5 330 1
385 2 19 5 61 6 93 l2 58 66 -5 c280 -25 825 -25 983 -1 21 3 41 5 173 20 86
10 110 14 110 15 0 1 14 4 30 6 33 4 62 8 115 18 19 3 46 8 60 10 14 2 32 7
40 10 8 3 31 7 50 10 63 10 93 17 260 57 187 46 169 41 275 70 44 12 86 22 93
22 6 0 12 5 12 10 0 6 3 8 6 5 3 -4 18 -2 34 2 38 11 46 -1 55 -75 3 -32 8
-62 10 -65 2 -3 6 -28 10 -56 3 -27 8 -67 11 -89 17 -127 36 -376 35 -470 0
-41 -10 -168 -16 -205 -15 -105 -61 -210 -91 -210 -20 0 -25 -1 -63 -18 -19
-7 -42 -15 -50 -17 -9 -2 -41 -10 -72 -19 -31 -9 -65 -18 -76 -20 -33 -7 -96
-18 -118 -21 -11 -2 -20 -4 -20 -5 0 -1 -11 -3 -25 -5 -30 -3 -105 -14 -140
-20 -23 -4 -49 -8 -140 -19 -19 -3 -51 -7 -70 -10 -19 -3 -51 -8 -70 -10 -200
-23 -257 -68 -265 -208 -10 -166 -19 -263 -30 -329 -3 -16 -7 -41 -10 -56 -2
-16 -11 -49 -19 -75 -7 -26 -11 -49 -8 -52 3 -4 0 -6 -6 -6 -7 0 -12 -6 -12
-14 0 -7 -9 -33 -20 -58 -38 -87 -20 -168 49 -214 39 -25 67 -30 236 -39 61
-4 126 -8 145 -10 19 -2 67 -7 105 -10 70 -6 90 -8 195 -20 30 -3 71 -8 90
-10 19 -2 55 -6 80 -9 25 -3 68 -9 95 -12 28 -4 58 -8 67 -9 9 -2 41 -6 70 -9
29 -4 64 -8 78 -11 14 -3 43 -7 65 -10 22 -2 52 -7 68 -10 15 -3 37 -7 50 -9
12 -2 53 -11 90 -20 89 -21 142 -12 187 33 44 42 136 206 156 276 1 6 14 48
27 95 23 78 57 235 72 335 3 22 7 47 9 55 1 8 6 35 11 60 4 25 9 54 12 65 2
11 6 36 9 55 8 52 11 68 26 145 21 106 16 907 -7 1255 -2 30 -6 96 -10 147 -3
51 -8 102 -10 113 -2 12 -6 58 -9 103 l-5 82 47 51 c47 51 103 116 143 164 11
14 28 34 37 45 34 42 110 142 148 195 59 84 159 234 159 240 0 3 8 16 17 30
95 148 264 515 303 660 3 8 14 47 26 85 23 76 35 125 43 167 2 15 12 63 20
105 9 43 18 98 20 123 3 25 8 73 11 107 20 183 2 497 -36 658 -5 22 -11 52
-14 67 -19 125 -139 447 -217 581 -15 26 -28 50 -28 53 0 3 -23 42 -51 87 -28
45 -56 91 -62 102 -7 11 -14 22 -17 25 -3 3 -17 21 -30 40 -79 115 -284 336
-385 415 -21 17 -44 36 -51 43 -7 6 -17 12 -22 12 -5 0 -15 7 -22 15 -15 18
-187 135 -199 135 -5 0 -11 3 -13 8 -11 25 -459 239 -538 257 -8 2 -28 9 -45
16 -30 12 -43 16 -67 22 -7 1 -18 6 -24 9 -6 4 -25 10 -42 13 -17 3 -44 10
-59 16 -24 9 -147 41 -208 54 -11 3 -40 9 -65 15 -25 5 -56 12 -70 14 -14 2
-36 7 -50 10 -14 3 -41 8 -60 11 -19 3 -46 8 -60 10 -14 2 -43 6 -65 9 -22 3
-51 8 -65 11 -14 3 -56 8 -95 11 -38 3 -73 8 -77 10 -6 4 -40 107 -42 129 -1
6 -4 12 -8 15 -3 3 -8 19 -11 35 -3 17 -11 46 -17 65 -7 19 -16 51 -20 70 -5
19 -22 89 -39 155 -17 66 -43 172 -56 235 -14 63 -28 126 -32 140 -3 14 -8 34
-10 45 -2 11 -10 54 -18 95 -8 41 -17 89 -20 105 -2 17 -9 55 -14 85 -23 128
-35 217 -35 258 -1 17 -3 32 -6 32 -4 0 -6 10 -7 23 0 12 -4 51 -8 87 -17 162
-22 257 -20 420 1 157 3 182 24 240 27 72 72 144 101 160 40 21 125 7 160 -26
54 -52 277 -207 425 -293 195 -115 499 -247 690 -300 72 -20 130 -34 145 -36
8 -2 44 -7 80 -14 36 -6 85 -13 110 -17 54 -7 251 -7 300 0 78 11 145 23 145
26 0 1 8 3 18 5 43 8 110 76 158 160 41 73 32 248 -17 317 -5 7 -18 29 -28 48
-19 35 -236 256 -316 320 -23 19 -48 40 -54 45 -12 11 -112 93 -136 112 -8 6
-45 36 -81 65 -37 29 -82 65 -100 80 -159 125 -377 327 -447 414 -65 81 -136
203 -191 330 -33 78 -61 147 -61 152 0 6 -4 12 -10 14 -5 2 -11 13 -13 26 -2
12 -9 28 -15 34 -7 7 -12 17 -12 24 0 16 -157 323 -208 407 -23 37 -42 71 -42
76 0 5 -3 11 -8 13 -4 2 -30 35 -57 73 -27 39 -52 72 -55 75 -4 3 -11 13 -16
22 -5 9 -45 55 -88 103 -88 96 -208 200 -304 264 -85 55 -286 151 -300 142 -1
-1 -16 6 -32 14 -17 9 -30 13 -30 10 0 -3 -9 -1 -20 5 -12 6 -35 13 -53 14
-18 2 -43 7 -57 10 -29 8 -75 14 -108 15 -17 1 -27 11 -38 39 -22 53 -98 216
-104 222 -3 3 -13 21 -24 40 -44 81 -172 266 -248 357 -77 92 -237 256 -303
313 -94 80 -185 150 -193 150 -6 0 -12 4 -14 9 -6 16 -186 131 -295 188 -60
31 -109 61 -111 65 -2 4 -10 8 -17 8 -7 0 -44 14 -82 31 -121 55 -443 159
-443 143 0 -3 -9 0 -19 5 -10 6 -39 13 -62 15 -24 3 -55 8 -69 12 -26 8 -623
17 -631 10z m2690 -1941 c11 -3 30 -8 43 -10 57 -11 84 -18 93 -24 6 -3 12 -6
15 -6 16 -1 112 -43 163 -71 32 -19 63 -34 67 -34 5 0 10 -3 12 -7 2 -5 29
-27 60 -51 133 -99 332 -336 405 -482 7 -14 23 -41 34 -60 31 -50 111 -211
107 -214 -1 -1 -51 -26 -109 -54 -198 -98 -255 -191 -265 -437 -5 -131 -9
-165 -21 -175 -4 -4 -29 -12 -56 -19 -136 -33 -219 -89 -258 -174 -30 -68 -25
-104 34 -221 l53 -105 -46 -45 c-57 -56 -112 -146 -140 -229 -12 -34 -24 -69
-27 -77 -3 -8 -7 -22 -8 -30 -2 -8 -6 -35 -11 -60 -15 -87 -7 -556 12 -644 3
-11 7 -46 9 -77 2 -30 9 -84 14 -120 6 -35 13 -80 15 -99 7 -54 16 -109 27
-172 15 -87 19 -107 34 -183 8 -38 16 -83 19 -100 3 -16 14 -70 26 -120 11
-49 22 -99 24 -110 2 -11 18 -76 36 -145 17 -69 33 -132 35 -140 4 -21 37
-133 79 -275 67 -225 113 -390 120 -427 2 -15 7 -31 10 -36 3 -5 7 -19 10 -33
3 -13 14 -59 25 -101 12 -43 30 -113 42 -155 11 -43 22 -89 25 -103 3 -14 11
-46 19 -73 8 -26 14 -49 15 -52 0 -3 2 -10 4 -17 2 -7 9 -35 16 -63 40 -173
57 -207 121 -238 42 -22 54 -23 99 -15 101 18 156 109 129 213 -4 16 -15 59
-24 95 -9 36 -18 72 -20 80 -33 126 -68 258 -70 270 -3 15 -62 240 -72 273 -4
16 1 17 45 13 28 -3 76 -9 109 -15 32 -6 74 -13 93 -16 19 -3 63 -12 96 -20
34 -8 73 -16 85 -19 54 -9 235 -59 245 -67 6 -5 13 -6 16 -4 3 3 18 0 34 -6
16 -7 31 -13 34 -14 77 -19 326 -123 440 -183 104 -56 244 -142 248 -153 2 -5
8 -9 13 -9 12 0 126 -89 192 -150 120 -109 224 -231 306 -355 25 -38 48 -72
51 -75 3 -3 14 -23 25 -45 11 -22 23 -42 26 -45 12 -9 78 -150 71 -150 -4 0
-2 -4 4 -8 27 -18 121 -297 150 -442 43 -220 51 -523 18 -695 -2 -11 -6 -40
-9 -64 -3 -24 -7 -47 -10 -51 -2 -3 -7 -22 -10 -41 -9 -49 -43 -184 -56 -216
-6 -16 -13 -37 -15 -48 -2 -11 -8 -29 -13 -40 -5 -11 -20 -49 -34 -85 -56
-147 -160 -356 -224 -450 -12 -19 -23 -40 -23 -46 0 -7 -3 -14 -8 -16 -4 -1
-23 -28 -42 -58 -33 -52 -41 -63 -65 -93 -5 -7 -16 -24 -24 -40 -8 -15 -18
-27 -22 -27 -5 0 -15 -12 -23 -27 -8 -16 -26 -40 -40 -55 -14 -15 -26 -31 -26
-37 0 -5 -4 -11 -8 -13 -4 -1 -30 -30 -57 -63 -60 -73 -103 -120 -173 -194
-90 -94 -97 -123 -77 -301 2 -19 7 -69 10 -110 4 -41 8 -91 10 -110 2 -19 6
-87 10 -150 4 -63 9 -146 12 -185 2 -38 5 -272 7 -518 2 -326 -1 -465 -10
-509 -7 -33 -15 -76 -18 -96 -3 -20 -7 -46 -9 -57 -6 -31 -16 -86 -23 -129 -3
-21 -8 -48 -10 -60 -3 -11 -7 -34 -9 -51 -3 -16 -9 -52 -15 -80 -5 -27 -11
-61 -14 -75 -2 -14 -10 -45 -17 -70 -7 -25 -14 -51 -15 -59 -1 -8 -13 -40 -25
-72 -20 -55 -29 -65 -54 -59 -5 1 -19 3 -30 5 -54 7 -123 17 -145 22 -14 2
-47 6 -75 9 -27 2 -57 7 -65 10 -8 3 -33 7 -55 9 -37 3 -104 11 -147 18 -31 5
-30 14 4 27 18 7 35 14 38 14 7 2 161 81 206 106 39 22 175 110 184 120 3 3
32 25 65 50 119 88 155 136 155 204 0 75 -46 135 -121 158 -46 13 -48 20 -14
38 13 7 27 21 31 32 3 10 9 18 14 18 16 0 93 158 105 217 3 13 7 33 10 45 23
100 28 174 28 368 0 162 -5 268 -19 380 -9 80 -13 108 -19 152 -4 24 -9 55
-11 71 -2 15 -6 42 -9 60 -3 17 -8 48 -11 67 -2 19 -7 46 -10 60 -3 14 -7 32
-8 40 -30 174 -55 227 -126 258 -44 19 -73 17 -185 -15 -49 -14 -101 -27 -114
-29 -13 -3 -32 -9 -43 -15 -10 -5 -18 -7 -18 -3 0 3 -7 1 -15 -6 -8 -7 -15
-10 -15 -7 0 3 -15 1 -32 -4 -43 -13 -216 -59 -248 -66 -50 -10 -55 -11 -55
-13 0 -2 -23 -8 -60 -15 -16 -3 -61 -12 -100 -21 -99 -22 -106 -24 -144 -30
-18 -3 -43 -8 -55 -10 -11 -3 -34 -7 -51 -9 -16 -3 -41 -7 -55 -10 -37 -7 -79
-13 -135 -20 -27 -3 -68 -8 -90 -11 -302 -39 -782 -38 -1155 1 -118 13 -152
12 -189 -7 -63 -32 -86 -80 -96 -201 -2 -29 -8 -92 -12 -142 -10 -119 -10
-544 0 -620 5 -33 10 -71 11 -85 2 -14 7 -41 11 -60 5 -19 9 -42 11 -50 1 -8
9 -40 18 -70 9 -30 18 -63 20 -72 9 -33 79 -203 91 -218 7 -8 15 -23 18 -33 4
-10 37 -64 74 -119 107 -157 172 -262 173 -275 0 -7 3 -13 8 -13 4 0 12 -10
18 -23 6 -12 33 -59 59 -105 36 -62 45 -86 36 -95 -6 -6 -11 -8 -11 -4 0 3
-12 2 -27 -4 -16 -6 -37 -12 -48 -14 -11 -1 -40 -7 -65 -13 -25 -6 -56 -13
-70 -16 -133 -26 -192 -36 -229 -41 -23 -3 -46 -7 -50 -9 -3 -2 -28 -7 -56
-10 -27 -4 -59 -9 -70 -11 -11 -3 -36 -7 -55 -10 -19 -2 -47 -7 -62 -10 -16
-3 -28 -3 -28 1 0 4 72 96 90 114 21 21 80 100 80 107 0 5 8 18 18 29 20 21
87 143 115 209 17 41 39 96 42 105 1 3 6 21 12 41 41 138 -90 258 -219 201
-54 -23 -78 -55 -108 -142 -36 -103 -87 -198 -163 -299 -38 -52 -79 -105 -91
-117 -11 -13 -26 -29 -31 -36 -6 -7 -35 -43 -65 -80 -29 -38 -57 -68 -61 -68
-3 0 -26 11 -50 24 -119 66 -235 88 -475 90 -73 1 -100 4 -97 13 4 10 122 94
168 119 11 6 56 30 100 54 44 24 179 94 300 155 235 119 257 132 356 192 35
22 75 46 88 54 59 35 88 78 97 144 3 28 5 145 5 260 -1 204 -4 295 -16 480 -3
50 -7 128 -10 175 -2 47 -5 85 -5 85 -2 0 -8 105 -14 226 -9 190 -30 233 -133
272 -102 39 -271 112 -335 144 -38 18 -71 34 -75 34 -5 1 -20 10 -35 20 -14
10 -29 19 -32 19 -4 0 -48 25 -98 55 -50 30 -95 55 -100 55 -4 0 -8 5 -8 10 0
6 -4 10 -10 10 -17 0 -200 134 -305 224 -74 63 -218 207 -265 265 -19 24 -39
48 -45 55 -35 40 -135 184 -135 195 0 5 -4 11 -8 13 -12 4 -99 164 -144 263
-60 132 -126 338 -153 476 -42 212 -58 384 -59 614 0 197 16 287 76 440 47
121 178 335 257 422 9 10 26 31 39 47 42 54 176 199 353 380 347 356 425 439
534 571 75 90 100 123 154 200 28 39 55 75 61 82 5 7 10 15 10 18 0 4 10 21
23 38 34 48 41 62 106 192 59 121 121 265 121 284 0 5 5 22 12 38 6 15 12 31
13 36 2 4 3 8 5 10 1 1 3 9 5 17 2 8 13 51 26 95 12 44 23 90 25 102 1 12 4
26 7 30 3 5 8 29 12 53 3 25 8 52 10 60 3 8 7 32 10 54 5 39 12 94 20 156 27
200 22 604 -11 870 -4 25 -7 56 -9 70 -1 14 -6 45 -10 70 -4 25 -9 56 -11 70
-2 14 -13 75 -24 135 -11 61 -23 124 -25 140 -3 17 -9 44 -15 60 -5 17 -12 44
-15 60 -2 17 -9 45 -14 63 -5 18 -10 33 -10 35 0 1 -2 9 -4 17 -9 25 -18 64
-23 95 -3 17 -11 36 -16 43 -6 6 -8 12 -5 12 3 0 2 12 -3 28 -47 151 -61 201
-65 222 -3 14 -7 36 -10 50 -2 14 -7 39 -10 55 -25 134 -25 440 0 565 3 14 8
36 11 50 3 14 8 39 11 55 3 17 9 38 14 48 5 9 7 17 5 17 -3 0 1 18 9 40 8 22
14 41 14 43 -3 23 85 225 133 306 21 34 38 67 38 72 0 5 4 9 9 9 5 0 12 8 16
19 3 10 14 29 25 42 76 91 101 119 146 164 28 27 66 63 85 79 55 47 195 136
213 136 9 0 16 3 16 8 0 6 110 54 130 57 3 0 37 8 75 18 39 9 86 18 105 20 54
4 217 -1 239 -8z m1148 -1282 c31 -90 159 -324 192 -353 4 -3 19 -23 36 -45
36 -49 239 -253 320 -322 146 -124 180 -152 315 -259 245 -195 422 -354 485
-437 42 -57 29 -62 -169 -59 -90 2 -211 19 -326 47 -8 2 -15 4 -15 5 0 1 -8 3
-17 5 -27 5 -117 34 -193 63 -38 15 -72 27 -75 27 -43 8 -452 225 -480 255 -3
3 -17 11 -32 19 -16 8 -28 18 -28 23 0 4 -5 8 -10 8 -12 0 -85 52 -190 135
-67 53 -147 92 -205 101 -5 1 -13 3 -17 4 -5 1 -13 3 -20 4 -6 0 -24 24 -40
53 l-28 51 37 12 c105 34 200 125 233 225 21 61 21 62 27 190 7 178 11 187 86
223 101 48 105 49 114 25z m783 -9988 c0 -3 -37 -32 -82 -65 -46 -33 -87 -64
-93 -68 -56 -42 -351 -192 -379 -192 -6 0 -16 -4 -22 -9 -5 -4 -25 -14 -44
-21 -19 -7 -51 -18 -70 -25 -19 -8 -72 -27 -118 -44 l-83 -31 7 57 c3 31 7 71
8 88 2 17 5 35 7 41 3 5 4 30 4 56 -1 46 1 48 30 53 16 4 40 7 53 8 12 1 22 4
22 7 0 3 15 5 33 5 17 0 55 4 82 9 28 4 59 9 70 10 39 5 130 18 150 22 11 2
49 9 84 15 36 5 68 12 72 14 3 3 23 7 42 10 20 3 75 19 124 34 97 32 103 33
103 26z"/>
<path d="M7259 12010 c-137 -42 -237 -137 -287 -273 -39 -104 -32 -253 16
-338 11 -20 26 -47 34 -60 18 -31 85 -96 128 -123 215 -136 502 -60 624 165
48 89 64 211 40 310 -4 19 -7 37 -6 42 1 4 -2 7 -8 7 -5 0 -10 7 -10 16 0 16
-31 71 -60 108 -57 71 -152 131 -245 155 -58 15 -164 11 -226 -9z m175 -322
c53 -24 78 -96 51 -149 -58 -112 -225 -61 -209 65 9 75 87 117 158 84z"/>
<path d="M8596 10757 c-91 -31 -136 -134 -98 -227 10 -25 152 -161 224 -214
81 -60 201 -32 247 57 20 38 18 121 -5 154 -20 32 -40 53 -48 53 -3 0 -14 8
-24 18 -165 159 -215 187 -296 159z"/>
</g>
</svg>
